<?xml version="1.0" encoding="UTF-8" standalone="no"?>
<svg
   xmlns:dc="http://purl.org/dc/elements/1.1/"
   xmlns:cc="http://creativecommons.org/ns#"
   xmlns:rdf="http://www.w3.org/1999/02/22-rdf-syntax-ns#"
   xmlns:svg="http://www.w3.org/2000/svg"
   xmlns="http://www.w3.org/2000/svg"
   xmlns:sodipodi="http://sodipodi.sourceforge.net/DTD/sodipodi-0.dtd"
   xmlns:inkscape="http://www.inkscape.org/namespaces/inkscape"
   version="1.0"
   width="582.000000pt"
   height="578.000000pt"
   viewBox="0 0 582.000000 578.000000"
   preserveAspectRatio="xMidYMid meet"
   id="svg12"
   sodipodi:docname="logo (1).svg"
   inkscape:version="0.92.5 (2060ec1f9f, 2020-04-08)">
  <defs
     id="defs16" />
  <sodipodi:namedview
     pagecolor="#ffffff"
     bordercolor="#666666"
     borderopacity="1"
     objecttolerance="10"
     gridtolerance="10"
     guidetolerance="10"
     inkscape:pageopacity="0"
     inkscape:pageshadow="2"
     inkscape:window-width="716"
     inkscape:window-height="480"
     id="namedview14"
     showgrid="false"
     inkscape:zoom="0.30622837"
     inkscape:cx="388"
     inkscape:cy="385.33333"
     inkscape:window-x="0"
     inkscape:window-y="0"
     inkscape:window-maximized="0"
     inkscape:current-layer="g10" />
  <metadata
     id="metadata2">
Created by potrace 1.16, written by Peter Selinger 2001-2019
<rdf:RDF>
  <cc:Work
     rdf:about="">
    <dc:format>image/svg+xml</dc:format>
    <dc:type
       rdf:resource="http://purl.org/dc/dcmitype/StillImage" />
  </cc:Work>
</rdf:RDF>
</metadata>
  <g
     transform="translate(0.000000,578.000000) scale(0.100000,-0.100000)"
     fill="#000000"
     stroke="none"
     id="g10">
    <path
       d="M 21.749677,5390.6468 C 7.699883,5381.2803 43.604913,5306.348 151.32,5122.1396 280.89033,4900.4651 669.6013,4226.075 750.77789,4084.0159 c 135.81468,-240.4076 190.45276,-327.8285 206.06365,-338.7561 28.09959,-17.172 493.30386,-15.6109 504.23146,3.1222 4.6833,7.8054 -31.2217,82.7376 -79.6155,167.0364 -74.9322,128.0092 -157.6699,271.6294 -396.51637,683.7567 -14.0498,26.5385 -59.32136,103.0318 -99.90965,170.1586 -40.5883,68.6879 -74.93224,129.5703 -76.49333,137.3757 -1.56108,6.2444 942.89735,14.0498 2099.66365,17.172 2093.4194,3.1222 2104.347,3.1222 2093.4194,-28.0996 -4.6833,-17.172 -24.9774,-56.1992 -45.2716,-85.8598 -18.733,-29.6607 -115.5205,-195.1361 -213.8691,-366.8558 -323.1452,-566.675 -546.3809,-950.7027 -580.7248,-1006.9019 -18.7331,-29.6607 -51.5159,-85.8598 -73.3711,-124.8871 -21.8553,-39.0272 -85.8599,-151.4255 -142.0591,-249.7741 -56.1991,-98.3485 -98.3485,-184.2084 -95.2264,-190.4527 4.6833,-7.8055 390.2721,-12.4887 855.4764,-12.4887 h 849.232 l 126.4482,220.1134 c 68.6878,121.7649 121.7648,226.3578 117.0816,234.1632 -4.6833,7.8055 -266.9461,14.0498 -585.4081,14.0498 -316.9009,0 -576.0416,4.6833 -576.0416,9.3666 0,6.2443 48.3938,92.1042 107.7151,192.0138 93.6653,157.6699 227.9189,390.2721 313.7787,540.1365 14.0498,26.5385 120.2038,209.1859 234.1633,405.883 113.9594,198.2582 270.0683,468.3265 346.5616,601.019 78.0544,132.6925 146.7423,251.3352 156.1088,260.7017 9.3665,10.9276 12.4887,31.2218 6.2444,43.7105 -7.8055,20.2941 -330.9508,23.4163 -2884.8911,23.4163 -1582.9435,0 -2886.452193,-6.2444 -2895.818723,-12.4887 z"
       id="path6"
       style="fill:#000000;fill-opacity:1;stroke-width:1.5610882"
       inkscape:connector-curvature="0" />
    <path
       d="M 13.944236,3317.5216 C 6.1387948,3309.7162 170.05306,3011.5483 244.9853,2897.5889 l 24.97741,-39.0272 h 596.33571 596.33568 l 32.7829,-57.7603 c 60.8824,-112.3984 221.6745,-390.2721 284.118,-494.865 35.9051,-56.1992 64.0047,-106.154 64.0047,-109.2762 0,-3.1221 26.5385,-51.5159 59.3213,-104.5929 34.344,-54.6381 78.0544,-131.1314 99.9097,-170.1586 21.8552,-39.0272 79.6155,-140.4979 129.5703,-226.3578 49.9548,-85.8598 107.7151,-187.3306 129.5703,-226.3578 20.2942,-39.0272 43.7105,-76.4933 49.9548,-85.8598 6.2444,-7.8055 78.0544,-131.1314 159.231,-273.1905 143.6202,-249.77405 388.711,-669.70679 418.3717,-718.10052 12.4887,-20.29415 15.6109,-20.29415 37.4661,0 12.4887,12.4887 35.905,48.39373 53.077,78.05441 85.8599,152.98665 401.1997,699.36751 485.4984,839.86541 51.516,88.982 95.2264,165.4754 95.2264,168.5975 0,3.1222 39.0272,68.6879 85.8599,148.3034 46.8326,78.0544 85.8598,145.1812 85.8598,146.7423 0,1.5611 46.8327,84.2988 104.593,181.0863 238.8465,410.5662 270.0682,466.7653 270.0682,485.4984 0,15.6109 -53.077,20.2942 -252.8963,17.172 -138.9368,-1.5611 -257.5795,-9.3666 -263.8239,-15.6109 -12.4887,-12.4887 -181.0862,-304.4122 -541.6976,-931.9697 l -132.6925,-231.041 -28.0996,35.905 c -15.6109,20.2941 -51.5159,79.6155 -81.1766,131.1314 -28.0996,51.5159 -107.7151,188.8917 -174.8419,304.4122 -67.1268,115.5205 -171.7197,298.1679 -234.1632,405.8829 -60.8825,107.7151 -157.6699,273.1905 -213.8691,368.4169 -54.6381,95.2264 -106.154,182.6473 -110.8373,195.136 -6.2443,12.4887 -85.8598,151.4256 -179.5251,310.6566 l -170.1586,288.8013 -850.79313,4.6833 c -466.76538,1.561 -853.915269,0 -858.598534,-6.2444 z"
       id="path8"
       style="fill:#000000;fill-opacity:1;stroke-width:1.5610882"
       inkscape:connector-curvature="0" />
  </g>
</svg>
